<?xml version="1.0" encoding="UTF-8" standalone="no"?>
<!-- Created with Inkscape (http://www.inkscape.org/) -->

<svg
   xmlns:dc="http://purl.org/dc/elements/1.1/"
   xmlns:cc="http://creativecommons.org/ns#"
   xmlns:rdf="http://www.w3.org/1999/02/22-rdf-syntax-ns#"
   xmlns:svg="http://www.w3.org/2000/svg"
   xmlns="http://www.w3.org/2000/svg"
   xmlns:sodipodi="http://sodipodi.sourceforge.net/DTD/sodipodi-0.dtd"
   xmlns:inkscape="http://www.inkscape.org/namespaces/inkscape"
   width="1000"
   height="1000"
   id="svg2"
   version="1.1"
   inkscape:version="0.48.4 r9943 custom"
   sodipodi:docname="Horse.svg">
  <defs
     id="defs4" />
  <sodipodi:namedview
     id="base"
     pagecolor="#61e2ff"
     bordercolor="#666666"
     borderopacity="1.0"
     inkscape:pageopacity="1"
     inkscape:pageshadow="2"
     inkscape:zoom="0.5"
     inkscape:cx="438.85921"
     inkscape:cy="569.34237"
     inkscape:document-units="px"
     inkscape:current-layer="layer1"
     showgrid="false"
     inkscape:window-width="1280"
     inkscape:window-height="691"
     inkscape:window-x="0"
     inkscape:window-y="22"
     inkscape:window-maximized="0"
     showguides="true"
     inkscape:guide-bbox="true" />
  <metadata
     id="metadata7">
    <rdf:RDF>
      <cc:Work
         rdf:about="">
        <dc:format>image/svg+xml</dc:format>
        <dc:type
           rdf:resource="http://purl.org/dc/dcmitype/StillImage" />
        <dc:title></dc:title>
      </cc:Work>
    </rdf:RDF>
  </metadata>
  <g
     inkscape:label="Layer 1"
     inkscape:groupmode="layer"
     id="layer1"
     transform="translate(0,-52.362183)">
    <path
       inkscape:connector-curvature="0"
       id="path3292"
       d="m 472.74548,876.99812 c -1.24089,-0.91329 -1.24104,-3.48805 -7.4e-4,-8.83288 1.66395,-7.1702 2.95457,-34.30006 2.96497,-62.32477 0.009,-23.95291 -0.0595,-24.93268 -3.47114,-49.66502 -0.46172,-3.34737 -0.52423,-6.08798 -0.14739,-6.46262 0.93696,-0.93148 13.47852,-1.07968 17.00622,-0.20095 4.10954,1.02369 27.55716,1.20106 35.63308,0.26954 6.81079,-0.78559 9.74136,-2.17825 8.07985,-3.83972 -0.71406,-0.71409 -40.94128,-1.15944 -44.82783,-0.49627 -1.28771,0.21971 -10.34029,-1.18453 -18.95337,-2.94004 -3.27038,-0.66657 -7.78574,-2.11454 -10.03413,-3.2177 -2.24839,-1.10317 -4.92416,-2.25709 -5.94616,-2.56426 -1.02199,-0.30717 -6.56678,-2.81849 -12.32169,-5.58071 -5.75499,-2.76223 -11.27376,-5.27391 -12.26394,-5.58153 -0.99026,-0.30762 -3.70855,-1.51628 -6.04063,-2.68592 -2.33215,-1.16964 -6.51304,-2.98647 -9.29086,-4.03738 -20.20927,-7.64557 -33.58931,-12.28472 -44.81557,-15.53856 -11.74946,-3.40545 -13.03115,-3.93762 -13.25428,-5.50328 -0.29731,-2.08586 1.7918,-4.47109 6.64171,-7.58329 6.51668,-14.23343 -24.21103,12.4722 -24.79435,12.89229 -2.14411,1.54485 -5.87711,4.55509 -8.29556,6.68942 -5.02152,4.43169 -6.94116,5.67509 -8.81918,5.71244 -2.64047,0.0525 -2.17258,-2.28366 1.74817,-8.72803 23.41595,-21.09038 -14.69117,-9.70256 -3.32286,-3.13793 -0.84302,1.43079 -3.01656,4.7755 -4.83014,7.43269 -3.36151,4.92518 -9.16087,15.2904 -16.01054,28.61587 -4.94073,9.61174 -10.8301,17.85187 -18.06167,25.27115 -9.66643,9.91729 -16.16409,14.42927 -18.05557,12.53778 -0.86301,-0.86299 -0.19302,-1.76897 3.18239,-4.30351 3.17123,-2.38127 3.74429,-4.89215 1.1149,-4.88502 -0.9198,0.002 -4.67992,1.84487 -8.35576,4.09418 -3.67591,2.24932 -10.36534,5.67561 -14.86539,7.61398 l -8.18198,3.52432 -10.10764,0.24004 c -5.55914,0.13202 -12.58303,-0.13639 -15.60866,-0.59646 -3.02555,-0.46008 -8.51125,-1.19032 -12.19043,-1.62276 -8.70881,-1.0236 -11.83158,-2.05722 -12.1109,-4.00859 -0.33626,-2.34952 2.01596,-3.90154 8.37976,-5.52912 4.23039,-1.08196 9.80023,-3.64832 20.38468,-9.39245 16.16202,-8.77111 21.36193,-12.06723 27.94262,-17.71235 2.45278,-2.10408 6.05578,-4.74568 8.00672,-5.87021 1.951,-1.12452 4.41256,-3.35229 5.47031,-4.95058 1.05767,-1.59829 3.05736,-3.77115 4.44371,-4.82859 1.38642,-1.05743 3.07282,-2.99234 3.74771,-4.2998 1.70922,-3.31138 5.75023,-8.19993 11.26544,-13.62836 2.83207,-2.7875 4.96102,-5.59848 5.37465,-7.09647 0.37669,-1.36431 2.91287,-5.15259 5.63591,-8.4184 5.71099,-6.8493 6.96949,-9.40022 6.96949,-14.12682 0,-1.87303 0.47287,-4.31995 1.05084,-5.43761 1.31268,-2.53847 1.4933,-11.74841 0.51315,-26.16336 -0.0424,-0.62699 -1.24319,-2.94936 -2.66797,-5.16083 -1.42477,-2.21147 -3.12307,-5.87938 -3.77395,-8.1509 -1.4325,-4.99937 -8.64652,-16.04675 -11.41275,-17.4772 -2.20268,-1.13907 -6.80931,-6.10271 -9.78625,-10.54469 -3.60568,-5.38025 -17.84999,-12.89998 -24.43587,-12.89998 -1.15081,0 -4.23076,-1.00064 -6.84425,-2.22364 -3.55446,-1.66332 -6.1507,-2.30195 -10.30342,-2.53439 -7.48554,-0.41899 -14.53693,-1.55468 -18.43167,-2.96859 -2.41778,-0.87772 -4.81958,-1.06456 -9.6625,-0.75163 -5.2917,0.34193 -7.44235,0.12565 -12.0194,-1.20873 -3.06599,-0.89385 -7.24688,-1.73718 -9.29087,-1.87406 -19.17709,-1.28429 -25.19913,-2.2053 -30.89584,-4.72523 -2.89571,-1.28094 -4.90818,-1.48717 -14.11335,-1.44631 -11.33798,0.0503 -13.34726,-0.16212 -22.25668,-2.35313 -3.06598,-0.75398 -8.303948,-1.54743 -11.639888,-1.76322 -6.05029,-0.39137 -20.08663,-3.30286 -26.08801,-5.41131 -4.41494,-1.55109 -6.97179,-4.40603 -8.92436,-9.96496 -4.08189,-11.62076 -0.32176,-32.8492 8.05972,-45.50293 2.90662,-4.38825 22.32193,-23.26158 28.16254,-27.37643 2.53254,-1.7842 6.667868,-4.69278 9.189638,-6.4635 2.52176,-1.77073 7.82439,-4.85672 11.78356,-6.85775 9.82134,-4.96386 18.82642,-5.96423 44.83036,-4.98016 20.23833,0.76588 54.2568,0.25689 58.71827,-0.87854 1.6352,-0.41616 8.32462,-1.44179 14.86539,-2.27919 13.07886,-1.67447 14.39319,-1.95572 32.70385,-6.99819 6.94957,-1.91381 15.81305,-4.32319 19.69663,-5.35419 3.88359,-1.03099 14.08496,-3.90175 22.66972,-6.37945 8.58476,-2.47772 19.78954,-5.57872 24.89952,-6.89112 17.18468,-4.41359 43.32241,-12.28216 49.74552,-14.97552 26.38491,-8.09538 35.2788,-14.94886 48.51832,-28.66214 22.46769,-23.31643 26.03605,-25.4704 52.24819,-31.53884 12.21161,-2.82715 11.60867,-2.72333 24.89952,-4.28724 27.99731,-3.29441 66.33708,-2.29237 85.63093,2.23804 7.08061,1.6626 7.27579,2.08901 4.31364,9.42331 -1.35416,3.35294 -3.71553,8.43754 -5.24755,11.29912 -2.97516,5.55729 -9.62683,25.86986 -9.62683,29.39792 0,5.3353 3.58895,8.17554 8.19202,6.48299 3.35601,-1.23403 12.67973,-6.57945 20.32143,-11.65058 3.32672,-2.20764 7.14096,-4.47207 8.47617,-5.03206 1.34888,-0.56572 3.59333,-2.64074 5.05096,-4.6696 2.90098,-4.03796 8.19699,-7.16752 10.94746,-6.46911 5.82597,1.47936 5.6351,1.49744 6.15732,-0.58315 0.27255,-1.08607 0.13394,-10.57092 -0.30794,-21.07745 -0.44202,-10.50654 -0.61647,-26.46117 -0.38776,-35.45473 0.2287,-8.99356 0.46625,-18.42456 0.52802,-20.95778 0.12472,-5.1181 4.46088,-25.17648 6.18125,-23.36606 1.29016,1.35771 87.82395,118.25562 56.02555,133.96807 0.81834,2.07606 3.28986,15.29364 5.49239,19.0369 7.71469,13.11164 11.48284,13.19075 11.03398,16.53716 -0.36962,2.75565 -0.16634,3.20734 2.60085,5.77972 2.14441,1.99343 4.60366,6.0053 8.60988,14.04589 3.0845,6.19048 6.95083,13.33283 8.59197,15.8719 3.88455,6.01017 6.21232,12.23456 5.60671,14.99203 -0.25621,1.16623 -2.64916,4.49967 -5.31787,7.40765 -2.66864,2.90798 -5.63272,7.05231 -6.58678,9.20962 -0.95406,2.15731 -2.68402,5.04255 -3.84426,6.41163 -1.16032,1.36909 -3.07796,3.82713 -4.26154,5.46232 -1.18351,1.6352 -6.13777,6.97819 -11.00945,11.87331 -11.53071,11.58609 -13.30958,15.01097 -11.30423,21.76378 1.38233,4.65477 3.18208,5.89951 10.81114,7.47702 7.01364,1.45027 6.52487,1.58659 23.73601,-6.61981 6.74517,-3.21616 13.08645,-5.93812 14.09164,-6.04881 3.75641,-0.41363 2.54622,2.18759 -4.19152,9.00941 -3.60545,3.65047 -8.72947,9.21923 -11.38666,12.37504 -2.65718,3.15581 -7.08893,7.5714 -9.84832,9.81244 -2.75938,2.24102 -5.01706,4.34411 -5.01706,4.67352 0,0.32941 -1.20269,1.34219 -2.67258,2.25062 -1.46981,0.90844 -3.65755,3.01151 -4.86142,4.67349 -1.20395,1.66199 -3.98378,4.29502 -6.17739,5.85118 -2.41109,1.71045 -4.29483,3.70853 -4.76331,5.05247 -0.43578,1.25012 -1.9085,2.89189 -3.36501,3.75121 -3.25448,1.9202 -9.92004,9.98189 -10.52298,12.72703 -0.67652,3.07991 1.51404,9.59369 4.28131,12.73083 2.96527,3.36172 7.37739,4.42067 14.26541,3.42385 2.48877,-0.36017 6.63613,-0.66158 9.21632,-0.6698 3.81914,-0.0122 5.6846,-0.496 10.03413,-2.60249 2.93859,-1.42316 7.83213,-3.10443 10.87448,-3.73618 4.18505,-0.86902 6.44667,-1.84086 9.29087,-3.99231 7.14311,-5.4033 23.51154,-13.66534 30.58307,-15.43694 2.43421,-0.60981 5.29862,3.34052 5.86811,8.09266 0.2577,2.15041 0.23421,18.96104 -0.052,37.35695 -0.28646,18.39592 -0.60778,44.81914 -0.71399,58.71828 -0.26274,34.37965 -0.83179,52.52057 -1.84197,58.71827 -1.02772,6.30525 -1.03374,61.01748 -0.007,67.6375 2.16886,13.99045 2.52407,16.55541 2.57342,18.58173 l 0.0543,2.22981 -157.20145,0.17544 c -86.4608,0.0965 -157.53593,-0.0708 -157.94472,-0.37164 z m 82.32577,-131.48897 c 4.47158,-1.40703 8.89805,-4.73768 19.58477,-14.7363 9.62244,-9.0029 12.54542,-12.47527 11.90539,-14.1431 -0.39155,-1.02046 -0.67608,-1.02677 -2.55216,-0.0566 -1.16129,0.60054 -2.58881,1.67061 -3.17228,2.37793 -0.58339,0.70733 -5.1038,5.01416 -10.04528,9.57075 l -8.98456,8.28471 -9.96881,3.92299 c -5.48287,2.15765 -10.30052,4.24175 -10.7059,4.63134 -2.2666,2.17829 7.16839,2.27867 13.93883,0.14828 z m -229.02163,-68.6259 c 2.51344,-9.31408 2.97159,-13.41219 3.29402,-29.46334 0.37215,-18.52611 0.0394,-21.43865 -3.41696,-29.93254 -1.21368,-2.98241 -2.20669,-6.58055 -2.20669,-7.99586 0,-3.31721 -1.16307,-5.44865 -2.97308,-5.44865 -0.78883,0 -1.7805,0.64696 -2.20372,1.43768 -1.13764,2.12575 -0.93354,10.54567 0.34332,14.16482 0.61201,1.73459 1.47413,5.20498 1.91585,7.71196 1.05946,6.01328 1.63259,46.34055 0.66708,46.93727 -1.04325,0.64478 -0.88924,3.8816 0.20656,4.33997 1.9797,0.82813 3.88328,0.0659 4.37362,-1.75131 z m -9.27124,0.55745 c 0.31834,-0.51099 0.47346,-4.53565 0.3448,-8.94367 -0.16627,-5.69217 0.0401,-8.34476 0.71153,-9.15399 0.76326,-0.91968 0.7646,-1.63995 0.007,-3.73524 -0.58532,-1.61868 -0.75449,-3.93511 -0.44938,-6.15356 0.51115,-3.7163 -0.42574,-9.40541 -3.68394,-22.37003 -0.97599,-3.88358 -1.94119,-8.53722 -2.14485,-10.34142 -0.20358,-1.8042 -1.07603,-4.1455 -1.93874,-5.20288 -0.86272,-1.05739 -2.14144,-2.89117 -2.84167,-4.07507 -2.2582,-3.81783 -10.52462,-12.61512 -13.74907,-14.6319 -3.06034,-1.91417 -8.42882,-7.39257 -11.21534,-11.44502 -1.65571,-2.40778 -4.79074,-3.83659 -9.90756,-4.51536 -5.83191,-0.77363 -6.13866,1.91818 -0.52214,4.58336 1.35632,0.64363 3.68044,2.65223 5.16468,4.46356 1.48423,1.81133 4.06784,3.99184 5.74131,4.84559 4.08337,2.08318 16.95323,15.24054 19.83607,20.27916 2.00333,3.50153 2.41124,5.164 3.04837,12.42372 0.55455,6.32004 1.12724,9.02916 2.32866,11.01582 1.35379,2.23878 1.61476,3.91869 1.7371,11.18217 0.0794,4.71402 0.55448,9.54766 1.05923,10.77741 0.51353,1.2512 0.96707,6.01255 1.03344,10.84905 0.12353,9.00876 0.77902,11.07739 3.51009,11.07739 0.74335,0 1.61208,-0.41809 1.9305,-0.92909 z"
       style="fill:#000000;fill-opacity:1"
       sodipodi:nodetypes="ccsssssccssssccsscccssccssscscsscssscsssccccscssscsscsssssssssssssssssssssssssccsssscsssscsccscscsssscccsccsssssssssccsscccssssssscsssccscccscscscsscccscsscccsccccccsscscscscsscccsccsc" />
    <path
       style="fill:#9c9c9c"
       d="m 231.57051,611.70155 c -2.71532,-1.40822 -9.17217,-12.12904 -8.00687,-13.29437 0.60376,-0.60373 13.00201,1.97992 19.31898,4.02584 3.84471,1.24522 3.90744,1.31274 3.81795,4.10975 -0.13736,4.29052 -2.19354,5.91737 -7.88356,6.23747 -3.43926,0.19349 -5.33868,-0.0893 -7.2465,-1.07869 z"
       id="path4177" />
    <path
       style="fill:#ffffff;fill-opacity:1"
       d="m 131.95652,517.89668 c -3.50563,-0.74194 -7.14981,-2.72331 -7.71432,-4.19433 -2.96936,-7.73811 5.616,-13.65977 29.11408,-20.08115 11.40487,-3.11664 21.81971,-1.73725 26.56823,3.51881 3.27738,3.62769 3.38545,6.4383 0.39282,10.21681 -2.60501,3.28912 -11.2606,7.58703 -19.00168,9.43528 -5.62803,1.34373 -24.8179,2.06571 -29.35913,1.10458 z"
       id="path3302" />
    <path
       inkscape:connector-curvature="0"
       id="path3288"
       d="m 246.41999,706.98566 c 0.96008,-1.022 1.91287,-1.85818 2.11727,-1.85818 0.2044,0 -0.41392,0.83618 -1.37401,1.85818 -0.96015,1.02199 -1.91295,1.85817 -2.11735,1.85817 -0.2044,0 0.41393,-0.83618 1.37409,-1.85817 z m 9.52313,-4.59572 c 0.53649,-0.21471 1.17756,-0.18831 1.42455,0.0587 0.24699,0.24698 -0.19198,0.42265 -0.97554,0.39038 -0.86583,-0.0357 -1.04199,-0.21179 -0.44901,-0.44906 z M 591.79239,414.01368 c -2.50615,-2.50617 6.69277,-30.66138 15.58346,-47.69646 1.94343,-3.72365 3.30837,-6.99539 3.03321,-7.27053 -0.27516,-0.27514 -1.92715,-0.19925 -3.67116,0.16866 -2.43413,0.51348 -5.84878,0.20551 -14.69465,-1.32539 -6.33808,-1.09686 -16.03909,-2.22773 -21.55786,-2.51303 -12.03792,-0.62231 -12.63558,-0.9462 -12.63558,-6.84749 0,-7.7795 -5.85376,-14.77894 -14.98877,-17.92227 -2.18053,-0.75031 -6.64036,-2.37672 -9.91075,-3.61423 -7.43232,-2.81236 -12.48001,-4.26349 -20.06827,-5.76922 -18.32322,-3.63589 -32.43627,-7.80519 -41.62308,-12.29636 -6.87413,-3.36056 -16.47308,-10.89021 -19.37651,-15.19942 -1.10175,-1.63519 -2.6279,-3.77075 -3.39146,-4.74567 -1.7446,-2.2275 -1.78415,-4.35333 -0.0876,-4.70851 0.7154,-0.14979 4.4782,0.87163 8.36178,2.26979 3.88358,1.39817 9.40236,3.02384 12.26394,3.61262 2.86159,0.58878 7.54419,1.55267 10.40577,2.14197 2.86159,0.58932 8.21313,1.39285 11.89231,1.78563 6.78122,0.72396 41.38278,0.41092 45.17531,-0.40871 2.8798,-0.62234 22.83271,1.00228 29.30087,2.38576 2.94364,0.62963 5.70303,0.92789 6.13197,0.6628 2.29261,-1.41692 -0.39668,-4.1148 -6.65286,-6.67415 -1.83959,-0.75255 -5.85324,-2.62751 -8.91923,-4.16659 -11.67141,-5.85881 -30.12396,-12.13079 -43.65897,-14.83953 -5.00718,-1.00209 -6.51163,-2.10316 -5.82589,-4.26373 0.32607,-1.02747 2.27493,-1.83812 7.67991,-3.19456 6.71997,-1.68647 8.58446,-1.8177 25.82466,-1.8177 19.83407,0 28.48223,0.79911 40.50818,3.74303 7.49966,1.83593 17.97032,4.06358 20.4399,4.34866 2.01055,0.2321 10.92272,4.47631 16.14894,7.69055 2.34115,1.43988 6.49446,3.23849 9.22962,3.99692 2.73516,0.75844 5.66951,2.03128 6.52078,2.82853 0.85126,0.79724 2.4432,1.78874 3.53759,2.20332 2.1638,0.81973 5.04055,5.20863 7.69536,11.74062 1.55611,3.82874 1.58644,4.22743 0.48878,6.42773 -1.73821,3.48425 -2.39794,14.17277 -2.74847,44.53003 -0.3584,31.03171 -0.009,29.20676 -6.8904,35.98663 -11.03019,10.8674 -24.94092,21.03781 -35.56543,26.00268 -7.65181,3.57572 -7.26197,3.44108 -7.95544,2.74762 z"
       style="fill:#777777" />
    <path
       inkscape:connector-curvature="0"
       id="path3324"
       d="m 793.46617,876.82269 c -0.87572,-0.56593 -0.89601,-0.72295 -0.0948,-0.73189 0.70796,-0.008 0.79768,-0.29571 0.29315,-0.94047 -1.24327,-1.58886 -2.42745,-7.69337 -2.44283,-12.59308 -0.008,-2.57836 -0.36933,-7.02923 -0.80281,-9.89081 -0.77493,-5.11631 -1.13884,-60.70149 -0.40515,-61.88863 0.98706,-1.5971 2.5144,-84.71989 1.92202,-104.60369 -0.11945,-4.0087 -0.13639,-9.25385 -0.0372,-11.52068 0.0446,-1.02199 0.10971,-11.05613 0.14442,-22.29807 0.0587,-18.95335 -0.0505,-20.76136 -1.4968,-24.85977 -0.85795,-2.43092 -2.05008,-5.16799 -2.64923,-6.08238 -1.03909,-1.58591 -0.82458,-1.93896 4.65569,-7.66137 3.15971,-3.29937 6.29527,-5.99746 6.96793,-5.99575 0.86345,0.002 6.08351,9.56183 17.7582,32.52114 9.0944,17.88492 28.4987,55.93283 43.1207,84.55091 27.2637,53.36049 27.835,54.55234 30.1047,62.80222 0.7311,2.65719 1.6759,5.5002 2.0997,6.31779 0.7131,1.37571 0.8037,1.32029 1.2153,-0.74327 0.4189,-2.09938 0.6489,-1.82853 3.9331,4.63059 3.7164,7.30928 4.1496,8.78952 2.3732,8.10784 -1.4723,-0.56495 -1.4523,1.29332 0.027,2.52108 0.628,0.52127 2.3491,3.15438 3.8246,5.85135 1.4755,2.69696 4.6868,8.04207 7.1364,11.87801 4.1531,6.50365 25.8037,47.82097 25.8037,49.24286 0,0.35354 0.3542,0.6428 0.7871,0.6428 0.4329,0 0.5804,0.33447 0.3278,0.74327 -0.6204,1.00371 -143.01277,1.00371 -144.5659,0 z m 104.62398,-72.65457 c -1.5999,-3.36888 -2.4028,-4.64544 -2.9217,-4.64544 -0.9844,0 -0.7176,1.75633 0.5394,3.55096 1.0563,1.50818 3.0036,2.40277 2.3823,1.09448 z M 702.78732,647.76172 c -3.69829,-1.0566 -4.45962,-1.9127 -4.45962,-5.01434 0,-5.66194 4.87436,-11.5602 31.98608,-38.70452 34.96048,-35.00259 41.04362,-42.81414 36.71326,-47.1445 -2.29365,-2.29364 -5.5569,-1.32287 -20.74732,6.17201 -21.34521,10.5316 -29.92231,12.91988 -33.79928,9.41129 -4.14283,-3.74925 -0.38018,-9.87349 14.89096,-24.23685 9.25905,-8.70866 12.03368,-12.31242 13.69369,-17.7856 0.30995,-1.022 2.0677,-3.86501 3.90611,-6.31779 1.83832,-2.45279 3.87585,-5.63027 4.52769,-7.06106 0.65185,-1.4308 1.25487,-2.71689 1.3399,-2.85799 0.0851,-0.1411 1.18967,-0.0292 2.45464,0.24859 1.69986,0.37336 2.69748,1.28462 3.8242,3.49314 0.83841,1.6434 1.16909,2.76843 0.73487,2.50007 -0.48194,-0.29785 -0.61766,-0.0402 -0.34852,0.6613 0.2426,0.63208 0.73665,0.96655 1.09788,0.74327 0.36131,-0.22329 0.47161,0.0769 0.24506,0.66719 -0.47034,1.22571 5.09095,12.7254 6.5957,13.63868 1.54458,0.93745 11.05479,19.49319 10.47303,20.43444 -0.29775,0.48173 -0.18619,0.63268 0.2626,0.35532 0.42916,-0.26521 0.97866,0.0349 1.22126,0.66704 0.24967,0.65074 0.12599,0.95455 -0.28526,0.70039 -0.41125,-0.25415 -0.53493,0.0497 -0.28527,0.7004 0.2426,0.63208 0.73665,0.96656 1.09788,0.74327 0.36131,-0.22329 0.47138,0.0775 0.24461,0.66845 -0.47272,1.23189 4.35757,11.24546 5.86165,12.15167 0.5492,0.33088 3.60879,5.5817 6.79905,11.66848 3.19034,6.08678 5.42639,10.83562 4.96906,10.55298 -0.52884,-0.32685 -0.67095,-0.0956 -0.39052,0.63534 0.24261,0.63209 0.65683,1.01587 0.92062,0.85285 0.26378,-0.16301 0.54347,0.42423 0.62167,1.30499 0.0781,0.88076 0.35847,2.63063 0.62293,3.8886 0.41214,1.96022 0.17928,2.47912 -1.62865,3.62959 -1.16017,0.73831 -2.97798,2.21759 -4.03952,3.2873 -3.57929,3.60684 -16.4678,13.18488 -25.62161,19.04048 -21.4593,13.72734 -52.16055,23.5449 -63.49883,20.30552 z"
       style="fill:#dcdcdc" />
    <path
       inkscape:connector-curvature="0"
       id="path3320"
       d="m 936.93975,875.62243 c -0.038,-1.37649 -21.0979,-42.01374 -24.8375,-47.92551 -1.9152,-3.02749 -2.7747,-4.6821 -1.9101,-3.67691 0.8646,1.00519 2.9345,4.18267 4.5999,7.06106 1.6654,2.87839 3.5773,5.73515 4.2485,6.34835 2.022,1.84705 7.6068,12.55745 7.0325,13.48668 -0.3327,0.5385 -0.2106,0.66489 0.3235,0.33477 0.8378,-0.51778 1.1748,0.39165 0.8964,2.41924 -0.076,0.55203 0.2153,0.7855 0.6468,0.51885 0.4642,-0.28694 0.6164,-0.0468 0.3726,0.58834 -0.4894,1.27528 5.4132,13.34892 6.2679,12.82074 1.0954,-0.67705 3.921,6.21448 3.1147,7.59686 -0.4029,0.69088 -0.7428,0.88328 -0.7552,0.42753 z m -144.90147,-2.94966 c 0.0357,-0.86587 0.21183,-1.04199 0.44908,-0.44906 0.21473,0.53654 0.18834,1.17762 -0.0587,1.4246 -0.24699,0.24698 -0.4227,-0.19202 -0.39044,-0.97554 z m -1.29039,-11.0871 c 0,-3.27039 0.13341,-4.51582 0.29039,-2.76762 0.15698,1.7482 0.15483,4.42397 -0.007,5.94616 -0.15973,1.52218 -0.28817,0.0918 -0.28549,-3.17854 z m -0.82563,-9.29087 c 0,-1.43079 0.15297,-2.01612 0.3399,-1.30072 0.18701,0.7154 0.18701,1.88605 0,2.60144 -0.18693,0.7154 -0.3399,0.13007 -0.3399,-1.30072 z m -0.68537,-12.26394 c 0.007,-2.45279 0.14294,-3.3666 0.30831,-2.03068 0.16545,1.33591 0.16204,3.34274 -0.007,4.45961 -0.16954,1.11688 -0.30489,0.0239 -0.30073,-2.42893 z m 0.0506,-17.46683 c 0,-4.70118 0.12063,-6.62439 0.26817,-4.2738 0.14746,2.35059 0.14746,6.19701 0,8.5476 -0.14754,2.35059 -0.26817,0.42738 -0.26817,-4.2738 z m 117.52731,-2.97308 c -0.6342,-1.22639 -0.9859,-2.22981 -0.7815,-2.22981 0.2044,0 0.8906,1.00342 1.5248,2.22981 0.6341,1.2264 0.9858,2.22981 0.7814,2.22981 -0.2044,0 -0.8906,-1.00341 -1.5247,-2.22981 z m -4.3558,-7.9752 c -0.6164,-1.19196 -1.6445,-2.60188 -2.2847,-3.13316 -1.4962,-1.24185 -1.5323,-3.10849 -0.049,-2.53927 1.7764,0.68168 1.3431,-0.79856 -2.3733,-8.10784 -3.2733,-6.43798 -3.5146,-6.7231 -3.9179,-4.63059 -0.5084,2.63784 -1.1142,1.921 -2.6477,-3.13267 -1.3615,-4.4872 -1.3555,-4.63066 0.1066,-2.54327 0.7651,1.09233 1.7029,1.58484 2.5806,1.3553 1.1316,-0.29591 2.1899,1.25907 5.9,8.66945 2.4867,4.96653 4.0296,8.41973 3.4288,7.6738 -0.9912,-1.23063 -1.0545,-1.05853 -0.6831,1.85817 0.2251,1.76793 0.7254,3.82839 1.1118,4.5788 0.3865,0.7504 0.533,1.53405 0.3256,1.74143 -0.2074,0.20737 -0.8814,-0.59819 -1.4978,-1.79015 z m -113.21447,-6.89018 c 0,-2.65719 0.1349,-3.74422 0.29976,-2.41563 0.16485,1.3286 0.16485,3.50266 0,4.83125 -0.16486,1.3286 -0.29976,0.24156 -0.29976,-2.41562 z m 106.46337,-1.65193 c -1.257,-1.79463 -1.5238,-3.55096 -0.5394,-3.55096 0.5189,0 1.3218,1.27656 2.9217,4.64544 0.6213,1.30829 -1.326,0.4137 -2.3823,-1.09448 z M 789.17904,794.3198 c 0,-1.4308 0.15297,-2.01612 0.3399,-1.30072 0.18701,0.71539 0.18701,1.88604 0,2.60144 -0.18693,0.7154 -0.3399,0.13007 -0.3399,-1.30072 z m 0.8147,-8.5476 c 0,-2.86159 0.13765,-3.94115 0.29857,-2.39905 0.16092,1.54211 0.15817,3.88341 -0.007,5.20289 -0.16419,1.31948 -0.29582,0.0578 -0.29255,-2.80384 z m 99.47156,-1.85817 c 0,-1.022 0.1687,-1.44009 0.3749,-0.92909 0.2062,0.511 0.2062,1.34718 0,1.85817 -0.2062,0.511 -0.3749,0.0929 -0.3749,-0.92908 z m -1.2695,-3.90217 c -0.28,-0.91979 -12.8002,-25.75428 -27.8228,-55.18774 -15.0225,-29.43346 -34.5853,-67.81403 -43.4728,-85.29015 -11.39376,-22.40434 -16.51934,-31.77567 -17.38087,-31.77787 -0.67206,-10e-4 -3.79625,2.68504 -6.94273,5.97055 l -5.72087,5.97366 1.37074,2.39123 c 0.7539,1.31518 1.59037,3.22741 1.85884,4.2494 0.2684,1.022 -0.48996,-0.0933 -1.68521,-2.47847 l -2.17332,-4.33665 1.80473,-1.98114 c 8.39597,-9.2167 11.32802,-11.3715 13.27472,-9.75587 0.59357,0.49263 1.08443,0.60388 1.09074,0.24722 0.007,-0.35665 2.57149,4.20138 5.70036,10.12895 3.12879,5.92757 5.65241,11.36996 5.60796,12.09419 -0.0446,0.72423 0.2296,1.12495 0.60897,0.89049 0.38514,-0.23808 0.47364,0.13685 0.20034,0.84913 -0.3299,0.85952 -0.20867,1.1019 0.3716,0.74327 0.5487,-0.33913 0.7117,-0.14287 0.4492,0.54099 -0.4617,1.20333 5.4719,13.53382 6.1746,12.83114 0.7,-0.70007 10.7263,18.82448 10.1476,19.76087 -0.313,0.50627 -0.1783,0.62443 0.3438,0.30176 0.8378,-0.51778 1.1748,0.39165 0.8964,2.41924 -0.076,0.55203 0.2153,0.7855 0.6468,0.51885 0.4638,-0.28668 0.6165,-0.0473 0.3735,0.58586 -0.4694,1.22343 7.3096,17.18195 8.8226,18.09919 1.5735,0.95391 8.0982,13.52517 7.512,14.47353 -0.326,0.52752 -0.1998,0.65117 0.3304,0.32353 0.8378,-0.51779 1.1748,0.39165 0.8965,2.41923 -0.076,0.55203 0.2152,0.78551 0.6467,0.51885 0.4641,-0.28683 0.6164,-0.047 0.373,0.58735 -0.4616,1.20298 6.2137,15.02235 6.9168,14.31925 0.7005,-0.70046 10.7272,18.82339 10.1482,19.76029 -0.3129,0.50626 -0.1783,0.62443 0.3438,0.30176 0.8378,-0.51778 1.1748,0.39165 0.8965,2.41924 -0.076,0.55202 0.2152,0.7855 0.6467,0.51884 0.4642,-0.28694 0.6164,-0.0468 0.3726,0.58835 -0.4687,1.22142 5.3938,13.35788 6.2124,12.86088 0.2938,-0.17841 2.974,4.35255 5.9559,10.0688 2.9819,5.71625 5.0365,10.15516 4.5658,9.86425 -0.8076,-0.49908 -0.6315,0.65451 0.5998,3.93102 0.1921,0.511 0.1688,0.92909 -0.052,0.92909 -0.2206,0 -0.6301,-0.75256 -0.9101,-1.67236 z m -97.40007,-15.42283 c 0,-6.74517 0.11268,-9.50456 0.25041,-6.13198 0.13772,3.37259 0.13772,8.89136 0,12.26395 -0.13773,3.37258 -0.25041,0.6132 -0.25041,-6.13197 z m 0.75182,-27.50097 c 0,-7.97156 0.10933,-11.23265 0.24297,-7.24687 0.13364,3.98578 0.13364,10.50797 0,14.49375 -0.13364,3.98578 -0.24297,0.72469 -0.24297,-7.24688 z m 0.54949,-17.09519 c 0,-1.022 0.16873,-1.44008 0.37491,-0.92909 0.20618,0.511 0.20618,1.34718 0,1.85818 -0.20618,0.51099 -0.37491,0.0929 -0.37491,-0.92909 z m -0.59268,-9.6625 c 0,-3.88358 0.12524,-5.47232 0.27836,-3.53053 0.15311,1.94179 0.15311,5.11927 0,7.06106 -0.15312,1.94179 -0.27836,0.35305 -0.27836,-3.53053 z m 0.73502,-14.12212 c 0,-3.47478 0.12807,-4.89628 0.28452,-3.15889 0.15646,1.73739 0.15646,4.5804 0,6.31779 -0.15645,1.73739 -0.28452,0.31589 -0.28452,-3.1589 z m -1.73486,-10.09607 c 0.007,-0.78353 0.35089,-1.92631 0.76586,-2.5395 0.55099,-0.81423 0.61996,-0.51354 0.25569,1.1149 -0.61134,2.73295 -1.03672,3.32621 -1.02155,1.4246 z m 0.4913,-9.13117 c -0.2345,-1.17262 -0.16256,-3.09583 0.15995,-4.27379 0.46848,-1.7114 0.58882,-1.28299 0.59892,2.13204 0.0141,4.80043 -0.1401,5.23577 -0.75887,2.14175 z m 1.10122,-9.01699 c 0,-1.02199 0.16873,-1.44008 0.37491,-0.92909 0.20618,0.511 0.20618,1.34718 0,1.85818 -0.20618,0.511 -0.37491,0.0929 -0.37491,-0.92909 z m 0.0699,-7.06106 c 0.008,-1.63519 0.16047,-2.21661 0.33826,-1.29205 0.17779,0.92456 0.17103,2.26244 -0.0149,2.97308 -0.18604,0.71063 -0.3315,-0.0459 -0.32325,-1.68103 z m -0.12881,-8.98117 c 0.0357,-0.86587 0.21184,-1.04198 0.44909,-0.44906 0.21473,0.53655 0.18834,1.17762 -0.0587,1.42461 -0.24699,0.24698 -0.4227,-0.19202 -0.39044,-0.97555 z m -0.68432,-4.02604 c 0,-1.02199 0.16872,-1.44008 0.3749,-0.92909 0.20618,0.511 0.20618,1.34718 0,1.85818 -0.20618,0.51099 -0.3749,0.0929 -0.3749,-0.92909 z m -87.9625,0.23553 c 0.53649,-0.2147 1.17756,-0.1883 1.42455,0.0587 0.24698,0.24698 -0.19199,0.42265 -0.97555,0.39038 -0.86583,-0.0357 -1.04198,-0.21179 -0.449,-0.44905 z m 9.61604,0.0155 c 0.511,-0.20619 1.34718,-0.20619 1.85818,0 0.51099,0.2062 0.0929,0.3749 -0.92909,0.3749 -1.022,0 -1.44009,-0.1687 -0.92909,-0.3749 z m 4.45962,-0.74326 c 0.511,-0.20619 1.34717,-0.20619 1.85817,0 0.511,0.20619 0.0929,0.37489 -0.92909,0.37489 -1.02199,0 -1.44008,-0.1687 -0.92908,-0.37489 z m -18.95337,-0.74327 c -0.56414,-0.22763 -0.88241,-1.59145 -0.81016,-3.47185 0.11572,-3.01303 0.12747,-3.02653 0.43236,-0.4985 0.17236,1.42915 0.66151,3.01789 1.08695,3.53053 0.82184,0.99023 0.75606,1.03104 -0.70915,0.43982 z m 93.65357,-4.33898 c 0.008,-1.63519 0.16047,-2.21661 0.33826,-1.29205 0.17779,0.92456 0.17102,2.26244 -0.0149,2.97307 -0.18604,0.71064 -0.3315,-0.0459 -0.32325,-1.68102 z m -59.649,1.1149 c 0.6132,-0.39628 1.61661,-0.70212 2.22981,-0.67964 0.73509,0.0269 0.60851,0.25845 -0.37164,0.67964 -2.04332,0.87804 -3.21687,0.87804 -1.85817,0 z m 10.40577,-3.71634 c 0.6132,-0.39628 1.44938,-0.7205 1.85817,-0.7205 0.4088,0 0.24157,0.32422 -0.37163,0.7205 -0.6132,0.39628 -1.44938,0.7205 -1.85817,0.7205 -0.4088,0 -0.24157,-0.32422 0.37163,-0.7205 z m -44.59616,-0.42521 c 0,-2.93537 8.7442,-12.86767 29.64299,-33.67052 10.5247,-10.47641 22.76107,-22.89444 27.19184,-27.59562 5.66973,-6.01576 6.42631,-6.67967 2.5541,-2.24142 -3.02607,3.4684 -15.18849,16.01107 -27.02758,27.8726 -21.7601,21.80124 -26.21429,26.65827 -30.17539,32.90432 -1.20231,1.89578 -2.18596,3.12457 -2.18596,2.73064 z m 93.13142,-4.77768 c 0,-2.24839 0.13929,-3.16818 0.30965,-2.04399 0.17028,1.1242 0.17028,2.96379 0,4.08798 -0.17036,1.1242 -0.30965,0.2044 -0.30965,-2.04399 z m -41.10257,1.91048 c 0,-0.2044 0.66895,-0.72964 1.48654,-1.16721 0.8176,-0.43756 1.48654,-0.62833 1.48654,-0.42394 0,0.2044 -0.66894,0.72965 -1.48654,1.16721 -0.81759,0.43756 -1.48654,0.62834 -1.48654,0.42394 z m 13.75048,-7.49846 c 0.8176,-0.6657 2.15549,-1.53878 2.97308,-1.94017 1.48654,-0.72981 1.48654,-0.72981 0,0.48056 -0.81759,0.6657 -2.15548,1.53878 -2.97308,1.94017 -1.48653,0.72981 -1.48653,0.72981 0,-0.48056 z m 6.31779,-3.98102 c 1.022,-0.86654 4.36671,-3.30824 7.4327,-5.42599 5.61213,-3.87644 9.63529,-7.07418 13.75048,-10.92941 1.22639,-1.1489 3.23322,-2.70858 4.45961,-3.46594 5.49499,-3.39346 -7.74925,7.59023 -17.70653,14.68432 -8.04678,5.73296 -10.55026,7.35343 -7.93626,5.13702 z m 27.50097,-22.72492 c 0,-0.56647 -0.6902,-2.64642 -1.53381,-4.6221 -1.77441,-4.15571 -1.05054,-3.60371 1.77069,1.35018 1.62738,2.85768 1.77715,3.52901 0.86553,3.87883 -0.64753,0.24849 -1.10241,-0.002 -1.10241,-0.60691 z M 714.54035,573.8044 c 0.53649,-0.21471 1.17756,-0.18831 1.42454,0.0586 0.24699,0.24698 -0.19198,0.42265 -0.97554,0.39038 -0.86583,-0.0357 -1.04199,-0.21179 -0.449,-0.44905 z m 5.15643,0.0155 c 0.51099,-0.20619 1.34717,-0.20619 1.85817,0 0.511,0.20619 0.0929,0.3749 -0.92909,0.3749 -1.02199,0 -1.44008,-0.16871 -0.92908,-0.3749 z m -8.08499,-1.55172 c -0.92455,-1.17887 -0.89824,-1.20516 0.28066,-0.28063 0.71539,0.56106 1.30072,1.14638 1.30072,1.30072 0,0.61174 -0.61037,0.21801 -1.58138,-1.02009 z m 71.64276,-0.35367 c -1.5431,-1.92022 -7.16995,-13.95426 -6.52464,-13.95426 0.52586,0 7.9729,14.2141 7.6278,14.55919 -0.1882,0.18816 -0.68463,-0.0841 -1.10316,-0.60493 z m -72.88959,-3.17686 c 0.0149,-1.22639 0.18172,-1.63812 0.37022,-0.91494 0.18842,0.72318 0.176,1.72659 -0.0275,2.22981 -0.20366,0.50321 -0.35781,-0.0885 -0.34265,-1.31487 z m 21.47186,1.58107 c 0.76482,-0.68438 5.14097,-2.6954 5.14097,-2.36251 0,0.42811 -4.12061,2.63962 -4.91822,2.63962 -0.29284,0 -0.39311,-0.1247 -0.22275,-0.27711 z m 31.80322,-2.32434 c 0.40137,-0.81759 1.27441,-2.15548 1.94016,-2.97307 1.21034,-1.48654 1.21034,-1.48654 0.48052,0 -0.40136,0.81759 -1.27441,2.15548 -1.94015,2.97307 -1.21034,1.48654 -1.21034,1.48654 -0.48053,0 z m -22.94591,-2.2298 c 1.022,-0.58423 2.19265,-1.06223 2.60145,-1.06223 0.40879,0 -0.0929,0.478 -1.11491,1.06223 -1.02199,0.58422 -2.19264,1.06222 -2.60144,1.06222 -0.4088,0 0.0929,-0.478 1.1149,-1.06222 z m -28.55811,-1.85818 c 1.47026,-2.82418 6.44318,-8.11049 15.799,-16.79475 l 10.15767,-9.42848 -11.24054,11.06762 c -6.18229,6.0872 -12.15312,12.23828 -13.26854,13.66907 -1.11543,1.4308 -1.76683,2.09974 -1.44759,1.48654 z m 55.41704,-3.46973 c -0.0557,-0.88637 -0.29374,-2.22425 -0.52898,-2.97308 -0.40494,-1.2889 -0.38249,-1.291 0.42054,-0.0394 0.46655,0.72715 0.70454,2.06504 0.52898,2.97308 -0.31901,1.64935 -0.31946,1.64938 -0.42054,0.0394 z m -14.22335,-0.56594 c 0,-0.2044 0.66894,-0.72965 1.48654,-1.16721 0.8176,-0.43757 1.48654,-0.62834 1.48654,-0.42394 0,0.2044 -0.66894,0.72964 -1.48654,1.16721 -0.8176,0.43756 -1.48654,0.62833 -1.48654,0.42394 z m 5.94615,-3.39702 c 0.6132,-0.39628 1.61662,-0.70212 2.22981,-0.67965 0.73517,0.0269 0.60852,0.25845 -0.37163,0.67965 -2.04332,0.87804 -3.21687,0.87804 -1.85818,0 z m 5.39569,-20.97939 c -1.5709,-1.95167 -7.92525,-15.4408 -7.2737,-15.4408 0.51397,0 8.70911,15.71474 8.37129,16.05255 -0.18441,0.18441 -0.67831,-0.0909 -1.09759,-0.61175 z m -22.77392,-8.00811 c 0.32414,-0.6132 1.74186,-2.62003 3.15057,-4.45962 1.40872,-1.83959 3.17815,-4.72807 3.93212,-6.41885 1.08592,-2.43514 1.83491,-3.14224 3.60345,-3.40179 1.50564,-0.22099 2.23248,-0.0126 2.23248,0.63992 0,0.6787 -0.66575,0.83444 -2.22981,0.52164 -1.66856,-0.33371 -2.22981,-0.17096 -2.22981,0.64661 0,0.60092 -1.31469,3.06764 -2.92164,5.48161 -2.92045,4.38731 -6.64981,9.09533 -5.53736,6.99048 z"
       style="fill:#d3d3d3" />
    <path
       inkscape:connector-curvature="0"
       id="path3318"
       d="m 115.73296,611.54607 c -4.07312,-1.40671 -8.75259,-5.29706 -11.26031,-9.36138 -3.0619,-4.96252 -7.320158,-20.1236 -6.017878,-21.42589 0.8807,-0.88073 18.879858,1.57156 20.561798,2.80145 0.6575,0.48081 1.58309,3.51648 2.24943,7.37788 0.62271,3.60852 2.28481,9.58126 3.69353,13.27275 1.96922,5.16015 2.36568,6.94755 1.71509,7.73151 -1.17741,1.41865 -6.21477,1.23618 -10.94166,-0.39632 z m -20.681838,-6.89084 c -3.35594,-0.8842 -9.28418,-7.67195 -11.32854,-12.97101 -0.92619,-2.4007 -1.87274,-6.78983 -2.10345,-9.75362 l -0.4195,-5.3887 2.20468,0 c 1.21257,0 3.76451,0.53149 5.67092,1.18108 3.13162,1.06704 3.54072,1.47971 4.23701,4.2738 2.01723,8.09447 3.27678,12.39122 4.90914,16.74587 0.97599,2.60366 1.77456,4.98957 1.77456,5.30202 0,0.95605 -2.47412,1.26154 -4.94482,0.61056 z"
       style="fill:#d2d2d2"
       sodipodi:nodetypes="ssscsscsssscssssss" />
    <path
       inkscape:connector-curvature="0"
       id="path3316"
       d="m 937.66045,875.33615 c 0,-0.4088 0.3542,-0.74327 0.7871,-0.74327 0.4329,0 0.5804,0.33447 0.3278,0.74327 -0.2527,0.4088 -0.6069,0.74327 -0.7872,0.74327 -0.1803,0 -0.3277,-0.33447 -0.3277,-0.74327 z m -146.36544,-4.14992 c 0.0357,-0.86587 0.21183,-1.04199 0.44908,-0.44906 0.21473,0.53654 0.18834,1.17762 -0.0587,1.4246 -0.24699,0.24698 -0.42269,-0.19201 -0.39044,-0.97554 z m -0.74327,-2.97308 c 0.0357,-0.86587 0.21183,-1.04199 0.44908,-0.44906 0.21473,0.53655 0.18835,1.17762 -0.0587,1.4246 -0.24699,0.24699 -0.42269,-0.19201 -0.39044,-0.97554 z m 140.99091,-5.14094 c -2.9697,-5.87605 -5.0947,-10.77741 -4.6724,-10.77741 0.6953,0 7.8987,14.24568 7.6171,15.06403 -0.1734,0.50395 -1.4985,-1.42504 -2.9447,-4.28662 z m -141.60537,-5.94616 c 0.008,-1.63519 0.16047,-2.21661 0.33826,-1.29205 0.17779,0.92456 0.17103,2.26244 -0.0149,2.97307 -0.18604,0.71064 -0.33149,-0.0459 -0.32324,-1.68102 z m -0.70039,-8.91923 c 0.007,-2.45279 0.14294,-3.36659 0.30831,-2.03068 0.16545,1.33592 0.16204,3.34274 -0.007,4.45962 -0.16954,1.11687 -0.30489,0.0239 -0.30073,-2.42894 z m -0.75085,-10.7774 c 0,-2.24839 0.13929,-3.16819 0.30965,-2.044 0.17028,1.1242 0.17028,2.96379 0,4.08799 -0.17036,1.12419 -0.30965,0.20439 -0.30965,-2.04399 z m 129.31511,-1.4513 c -0.7281,-1.31774 -3.4283,-5.62755 -6.0004,-9.57735 -5.7628,-8.84967 -8.7699,-15.10157 -9.293,-19.32096 -0.2196,-1.77116 -0.3091,-3.10904 -0.1989,-2.97308 1.1476,1.41553 5.5357,8.93271 4.8085,8.23735 -1.2696,-1.21408 -2.1608,-1.1806 -2.1608,0.0812 0,1.88502 4.6093,9.74861 8.1213,13.85512 3.5377,4.13648 7.2769,10.86403 6.4808,11.66014 -0.2385,0.23842 -1.0293,-0.64465 -1.7575,-1.9624 z m -129.32529,-6.35303 c 0.007,-2.04399 0.14992,-2.79195 0.3208,-1.66214 0.1708,1.12982 0.16627,2.80217 -0.0104,3.71635 -0.17638,0.91418 -0.31619,-0.0102 -0.31061,-2.05421 z m -0.0676,-15.60866 c 0.0149,-1.22639 0.18173,-1.63812 0.37023,-0.91494 0.18841,0.72318 0.17608,1.72659 -0.0275,2.22981 -0.20359,0.50321 -0.35774,-0.0885 -0.34265,-1.31487 z m 0.0855,-6.68942 c 0.007,-2.45279 0.14293,-3.36659 0.30831,-2.03068 0.16545,1.33592 0.16203,3.34274 -0.007,4.45962 -0.16954,1.11687 -0.30489,0.0239 -0.30073,-2.42894 z m 0.65779,-8.91923 c 0.0149,-1.2264 0.18173,-1.63812 0.37023,-0.91494 0.18841,0.72317 0.17608,1.72659 -0.0275,2.2298 -0.20358,0.50322 -0.35773,-0.0885 -0.34264,-1.31486 z m -0.0275,-7.80433 c 0,-1.02199 0.16872,-1.44008 0.37491,-0.92909 0.20618,0.511 0.20618,1.34718 0,1.85818 -0.20619,0.511 -0.37491,0.0929 -0.37491,-0.92909 z m 102.52716,-2.51305 c -0.4686,-0.56458 -1.3218,-2.82226 -1.8961,-5.01707 -0.5743,-2.19481 -1.2664,-4.6595 -1.5381,-5.47709 -0.4034,-1.21442 -0.2158,-1.14639 1.025,0.37163 0.9053,1.10747 1.6089,3.20945 1.7416,5.20289 0.1583,2.37864 0.5447,3.34471 1.3375,3.34471 1.116,0 2.197,0.9961 2.2184,2.04399 0.019,0.9428 -1.9869,0.61699 -2.8883,-0.46906 z M 790.05694,767.93374 c 7.5e-4,-7.35837 0.11201,-10.26807 0.24714,-6.46601 0.1352,3.80206 0.13453,9.82254 0,13.37884 -0.13594,3.55631 -0.24654,0.44553 -0.24572,-6.91283 z m 84.99721,-15.60866 c -2.9697,-5.87604 -5.0946,-10.7774 -4.6724,-10.7774 0.6953,0 7.8987,14.24568 7.6172,15.06403 -0.1734,0.50394 -1.4985,-1.42504 -2.9448,-4.28663 z m -84.25252,-13.00721 c 0,-7.56276 0.11037,-10.65662 0.24527,-6.87524 0.13491,3.78138 0.13491,9.9691 0,13.75048 -0.1349,3.78138 -0.24527,0.68753 -0.24527,-6.87524 z m 0.6372,-19.325 c 0,-1.83959 0.14494,-2.59215 0.32206,-1.67236 0.17719,0.9198 0.17719,2.42492 0,3.34472 -0.17712,0.91979 -0.32206,0.16723 -0.32206,-1.67236 z m 64.66182,-4.83125 c -3.3348,-6.60959 -5.4806,-11.52067 -5.0336,-11.52067 0.7062,0 8.6388,15.71119 8.3522,16.54255 -0.1752,0.50835 -1.6685,-1.7515 -3.3186,-5.02188 z m -65.49019,-6.31779 c 0,-1.02199 0.16872,-1.44008 0.3749,-0.92909 0.20618,0.511 0.20618,1.34718 0,1.85818 -0.20618,0.511 -0.3749,0.0929 -0.3749,-0.92909 z m 0.89735,-12.26394 c 0,-4.08798 0.1268,-5.66551 0.27738,-3.50562 0.15059,2.1599 0.14903,5.50461 0,7.4327 -0.15259,1.92808 -0.27582,0.1609 -0.27389,-3.92708 z m 50.46154,-9.45872 c -1.8309,-2.26847 -10.716,-21.09131 -9.2183,-19.52878 1.213,1.2655 10.706,19.75253 10.3339,20.12466 -0.1932,0.19314 -0.6952,-0.075 -1.1156,-0.59588 z m -50.58812,-6.14994 c 0.0149,-1.22639 0.18173,-1.63812 0.37022,-0.91494 0.18842,0.72318 0.17608,1.72659 -0.0275,2.22981 -0.20358,0.50321 -0.35774,-0.0885 -0.34265,-1.31487 z m -0.82949,-3.77828 c 0.0357,-0.86587 0.21183,-1.04199 0.44908,-0.44906 0.21473,0.53654 0.18835,1.17762 -0.0587,1.4246 -0.24699,0.24698 -0.42269,-0.19202 -0.39044,-0.97554 z m 0,-4.45962 c 0.0357,-0.86587 0.21183,-1.04198 0.44908,-0.44906 0.21473,0.53655 0.18835,1.17762 -0.0587,1.42461 -0.24699,0.24698 -0.42269,-0.19202 -0.39044,-0.97555 z m 0.95963,-9.22892 c 0,-4.29238 0.12279,-6.04836 0.27293,-3.90217 0.15014,2.14619 0.15014,5.65814 0,7.80433 -0.15014,2.14619 -0.27293,0.39022 -0.27293,-3.90216 z m -0.0728,-11.14904 c 0,-1.8396 0.14494,-2.59216 0.32206,-1.67236 0.1772,0.9198 0.1772,2.42492 0,3.34471 -0.17712,0.9198 -0.32206,0.16724 -0.32206,-1.67235 z m -85.49232,-3.51453 c 1.533,-0.16035 4.04153,-0.16035 5.57452,0 1.533,0.16036 0.27873,0.29155 -2.78726,0.29155 -3.06598,0 -4.32025,-0.13119 -2.78726,-0.29155 z m 10.03414,-0.69407 c 0.511,-0.20619 1.34717,-0.20619 1.85817,0 0.511,0.20619 0.0929,0.37489 -0.92908,0.37489 -1.022,0 -1.44009,-0.1687 -0.92909,-0.37489 z m -17.27581,-0.98578 c -0.26037,-0.42133 0.0379,-0.54593 0.69942,-0.29211 1.28764,0.49412 1.52325,1.02687 0.45414,1.02687 -0.38472,0 -0.90375,-0.33064 -1.15356,-0.73476 z m 21.78188,0.22703 c 0.53649,-0.21471 1.17756,-0.18831 1.42455,0.0586 0.24699,0.24698 -0.19199,0.42265 -0.97554,0.39038 -0.86584,-0.0357 -1.04199,-0.21179 -0.44901,-0.44905 z m 2.97308,-0.74327 c 0.53649,-0.21471 1.17756,-0.18831 1.42455,0.0586 0.24698,0.24698 -0.19199,0.42265 -0.97554,0.39038 -0.86584,-0.0357 -1.04199,-0.21179 -0.44901,-0.44905 z m 2.97307,-0.74327 c 0.5365,-0.21471 1.17756,-0.18831 1.42455,0.0586 0.24699,0.24698 -0.19198,0.42265 -0.97554,0.39038 -0.86583,-0.0357 -1.04199,-0.21179 -0.44901,-0.44905 z m 65.03413,-3.58025 c 0.007,-2.45279 0.14293,-3.36659 0.30831,-2.03068 0.16545,1.33592 0.16203,3.34274 -0.007,4.45962 -0.16954,1.11687 -0.30489,0.0239 -0.30073,-2.42894 z m 27.38535,-0.1646 c -2.9284,-5.77579 -6.06831,-12.84261 -5.70612,-12.84261 0.68129,0 8.63712,15.75928 8.36132,16.56245 -0.1708,0.49741 -1.3656,-1.17652 -2.6552,-3.71984 z m -121.86602,0.90787 c 0.0149,-1.22639 0.18173,-1.63812 0.37022,-0.91494 0.18842,0.72318 0.17601,1.72659 -0.0275,2.22981 -0.20366,0.50321 -0.35781,-0.0885 -0.34265,-1.31487 z m 43.70802,-1.85817 c 0.6132,-0.39628 1.44938,-0.72051 1.85818,-0.72051 0.40879,0 0.24156,0.32423 -0.37164,0.72051 -0.6132,0.39628 -1.44937,0.7205 -1.85817,0.7205 -0.4088,0 -0.24156,-0.32422 0.37163,-0.7205 z m 6.00807,-2.50692 c 0.7649,-0.68438 5.14097,-2.6954 5.14097,-2.36251 0,0.42811 -4.12053,2.63962 -4.91821,2.63962 -0.29285,0 -0.39304,-0.1247 -0.22276,-0.27711 z m 5.88424,-3.05101 c 0,-0.2044 2.67577,-1.71698 5.94616,-3.3613 3.27038,-1.64432 5.94615,-2.82244 5.94615,-2.61804 0,0.2044 -2.67577,1.71699 -5.94615,3.3613 -3.27039,1.64432 -5.94616,2.82244 -5.94616,2.61804 z m 38.07917,-3.3613 c 0,-1.4308 0.15297,-2.01612 0.3399,-1.30073 0.18701,0.7154 0.18701,1.88605 0,2.60145 -0.18693,0.71539 -0.3399,0.13007 -0.3399,-1.30072 z m -87.13494,-1.85818 c 0.96008,-1.02199 1.91288,-1.85817 2.11728,-1.85817 0.20439,0 -0.41393,0.83618 -1.37401,1.85817 -0.96016,1.022 -1.91295,1.85818 -2.11735,1.85818 -0.2044,0 0.41392,-0.83618 1.37408,-1.85818 z m 85.93939,-2.25854 c -0.71718,-1.86909 -0.50564,-2.35137 0.3706,-0.84461 0.43384,0.74606 0.63222,1.51305 0.44083,1.70442 -0.19139,0.19137 -0.55648,-0.19555 -0.81143,-0.85981 z m -83.70958,-0.62353 c 0,-0.15434 0.58532,-0.73966 1.30072,-1.30072 1.17882,-0.92453 1.20513,-0.89824 0.28058,0.28063 -0.97093,1.2381 -1.5813,1.63183 -1.5813,1.02009 z m 61.69135,-0.0387 c 0,-0.2044 0.66894,-0.72965 1.48654,-1.16721 0.81759,-0.43756 1.48653,-0.62834 1.48653,-0.42394 0,0.2044 -0.66894,0.72965 -1.48653,1.16721 -0.8176,0.43756 -1.48654,0.62834 -1.48654,0.42394 z m 3.71634,-2.19111 c 0,-0.15434 0.58533,-0.73966 1.30072,-1.30072 1.1789,-0.92453 1.20514,-0.89824 0.28066,0.28063 -0.971,1.2381 -1.58138,1.63183 -1.58138,1.02009 z m 15.94707,-2.51597 c -0.77798,-1.52785 -1.51924,-2.98221 -1.64716,-3.2319 -0.12799,-0.2497 0.69949,-1.02211 1.83877,-1.71647 l 2.07142,-1.26249 -1.68202,1.47179 -1.68202,1.4718 1.58837,2.69204 c 0.87356,1.48062 1.43956,2.84079 1.25776,3.0226 -0.1818,0.18181 -0.96714,-0.9195 -1.74512,-2.44737 z m -73.55044,-3.14953 c 2.01322,-2.04399 3.82769,-3.71635 4.03209,-3.71635 0.2044,0 -1.2756,1.67236 -3.28882,3.71635 -2.01329,2.04399 -3.82776,3.71634 -4.03216,3.71634 -0.2044,0 1.2756,-1.67235 3.28889,-3.71634 z m 60.57645,3.43572 c 0,-0.15434 0.58532,-0.73967 1.30072,-1.30073 1.1789,-0.92453 1.20514,-0.89824 0.28066,0.28063 -0.97101,1.2381 -1.58138,1.63184 -1.58138,1.0201 z m 6.68273,-4.71497 c 1.01836,-0.72721 3.02518,-2.33687 4.45962,-3.57703 1.43451,-1.24016 3.77878,-3.13066 5.20957,-4.20113 1.4308,-1.07047 4.06086,-3.36573 5.84455,-5.10059 1.78378,-1.73485 2.90113,-2.52011 2.48312,-1.74501 -0.41809,0.77509 -2.83238,3.08161 -5.36522,5.1256 -2.53276,2.04399 -6.0928,4.96831 -7.91106,6.49848 -1.81826,1.53017 -4.04078,3.12857 -4.93895,3.552 -1.32755,0.62582 -1.28667,0.52248 0.21837,-0.55232 z m -596.33716,-3.1401 c -3.62567,-3.34197 -12.26105,-17.97174 -12.88785,-21.83392 -0.34175,-2.10608 -0.1569,-2.585 1.1271,-2.92078 2.12478,-0.55564 36.60928,4.52956 37.88257,5.58629 2.09149,1.73578 -1.2368,12.79238 -5.21463,17.32285 -2.60932,2.97183 -7.8099,4.77835 -13.75583,4.77835 -3.5891,0 -4.27469,-0.28116 -7.15136,-2.93279 z m 604.93378,-0.25431 c 0.20781,-0.5415 2.38834,-2.75429 4.84567,-4.9173 3.61347,-3.18072 4.8169,-3.84513 6.29348,-3.47453 1.00416,0.25201 1.82569,0.82726 1.82569,1.27833 0,0.56328 -0.33796,0.53962 -1.07922,-0.0756 -1.60509,-1.33212 -3.29403,-0.47355 -8.00769,4.0708 -2.3407,2.25654 -4.08575,3.65976 -3.87793,3.11827 z m -66.56497,-5.3605 c 2.63355,-2.65718 4.95552,-4.83125 5.15992,-4.83125 0.2044,0 -1.7831,2.17407 -4.41665,4.83125 -2.63363,2.65719 -4.9556,4.83125 -5.16,4.83125 -0.2044,0 1.7831,-2.17406 4.41673,-4.83125 z m 14.49375,-13.75048 c 4.89279,-4.90558 9.0632,-8.91923 9.2676,-8.91923 0.2044,0 -3.63154,4.01365 -8.52433,8.91923 -4.89279,4.90558 -9.06328,8.91923 -9.26768,8.91923 -0.20439,0 3.63162,-4.01365 8.52441,-8.91923 z m 14.12212,-14.86538 c 2.83966,-2.86159 5.33028,-5.20289 5.53468,-5.20289 0.2044,0 -1.95175,2.3413 -4.79141,5.20289 -2.83966,2.86158 -5.33028,5.20288 -5.53468,5.20288 -0.2044,0 1.95175,-2.3413 4.79141,-5.20288 z m -35.49111,-6.47071 c 0.9198,-0.17716 2.42492,-0.17716 3.34471,0 0.9198,0.17716 0.16724,0.32211 -1.67235,0.32211 -1.8396,0 -2.59216,-0.14495 -1.67236,-0.32211 z m 44.00563,-2.82016 c 1.79276,-2.04399 3.4151,-3.88358 3.60515,-4.08798 0.19013,-0.2044 -0.007,0.29731 -0.43734,1.1149 -0.43057,0.8176 -2.05291,2.65719 -3.60515,4.08798 -2.68239,2.47254 -2.66068,2.41729 0.43734,-1.1149 z m -49.03764,0.7253 c -0.51709,-0.62307 -0.79626,-1.2768 -0.62033,-1.45273 0.17593,-0.17592 0.72818,0.33386 1.22714,1.13287 1.07908,1.72789 0.71918,1.9176 -0.60681,0.31986 z m 26.35722,-4.40064 c 0.79352,-0.63576 1.76906,-1.15591 2.1679,-1.15591 0.94432,0 0.52266,0.34332 -1.75248,1.42686 -1.75211,0.83443 -1.77582,0.81896 -0.41542,-0.27095 z m -27.08555,-1.63324 c 0,-0.3988 0.52014,-1.37434 1.15586,-2.16787 1.08993,-1.36041 1.10539,-1.33669 0.271,0.41539 -1.08354,2.27517 -1.42686,2.69684 -1.42686,1.75248 z m 55.80488,-3.23902 c 1.08354,-2.27517 1.42686,-2.69683 1.42686,-1.75248 0,0.3988 -0.52014,1.37434 -1.15594,2.16787 -1.08985,1.36042 -1.10539,1.3367 -0.27092,-0.41539 z m -19.32277,0.46105 c 0.75821,-0.69093 8.11405,-4.16377 8.11405,-3.8308 0,0.41908 -7.09822,4.11302 -7.90348,4.11302 -0.28616,0 -0.38085,-0.12699 -0.21057,-0.28222 z m -33.1374,-2.69085 c 0.73993,-0.8176 1.51248,-1.48654 1.71688,-1.48654 0.2044,0 -0.23368,0.66894 -0.97361,1.48654 -0.73992,0.81759 -1.51255,1.48653 -1.71695,1.48653 -0.2044,0 0.23376,-0.66894 0.97368,-1.48653 z m 43.06584,-2.56044 c 0.79359,-0.63576 1.76913,-1.15591 2.1679,-1.15591 0.94432,0 0.52266,0.34331 -1.75248,1.42686 -1.75211,0.83443 -1.77582,0.81896 -0.41542,-0.27095 z m -41.20766,0.12621 c 0,-0.11243 2.59215,-2.70458 5.76033,-5.76034 l 5.76034,-5.55592 -5.55594,5.76034 c -5.16022,5.35008 -5.96473,6.09947 -5.96473,5.55592 z m 47.42987,-2.53313 c 0.53656,-0.2147 1.17763,-0.1883 1.42462,0.0587 0.24699,0.24698 -0.19206,0.42265 -0.97554,0.39038 -0.86591,-0.0357 -1.04199,-0.21179 -0.44908,-0.44905 z m -30.34025,-13.98601 c 3.04168,-3.27039 5.6704,-6.11339 5.84172,-6.31779 0.17125,-0.2044 -0.0446,0.29731 -0.47941,1.1149 -0.43488,0.8176 -3.06368,3.66061 -5.84172,6.31779 l -5.05096,4.83125 5.53037,-5.94615 z m 5.97447,-7.43269 c 0,-0.4088 0.32421,-1.24498 0.72052,-1.85818 0.39624,-0.61319 0.72046,-0.78043 0.72046,-0.37163 0,0.4088 -0.32422,1.24497 -0.72046,1.85817 -0.39631,0.6132 -0.72052,0.78043 -0.72052,0.37164 z m 2.20706,-6.27393 c 0,-0.38467 0.33061,-0.90375 0.73472,-1.1535 0.42136,-0.2604 0.54594,0.038 0.29211,0.6994 -0.49413,1.28765 -1.02683,1.52325 -1.02683,0.4541 z m 2.60145,-3.76021 c 0.73992,-0.8176 1.51255,-1.48654 1.71695,-1.48654 0.2044,0 -0.23376,0.66894 -0.97369,1.48654 -0.73992,0.8176 -1.51255,1.48654 -1.71695,1.48654 -0.2044,0 0.23376,-0.66894 0.97369,-1.48654 z m 8.36177,-11.64129 c 0.511,-0.20619 1.34718,-0.20619 1.85818,0 0.511,0.20619 0.0929,0.3749 -0.92909,0.3749 -1.02199,0 -1.44008,-0.16871 -0.92909,-0.3749 z M 531.9778,249.44767 c 0.1465,-0.43945 0.58413,-0.79901 0.97249,-0.79901 0.38836,0 0.82592,0.35956 0.97242,0.79901 0.1465,0.43946 -0.29114,0.79902 -0.97242,0.79902 -0.68135,0 -1.11899,-0.35956 -0.97249,-0.79902 z"
       style="fill:#c9c9c9" />
    <path
       inkscape:connector-curvature="0"
       id="path3314"
       d="m 139.32618,616.31766 c -2.77321,-1.50777 -6.8082,-6.75522 -9.15291,-11.90316 -2.39972,-5.26883 -5.32776,-18.82911 -4.28986,-19.86704 0.43601,-0.43601 2.75657,-0.40958 6.17315,0.0703 3.01091,0.42293 10.32424,1.3067 16.25188,1.96394 17.07899,1.89367 17.70601,2.55209 16.51678,17.34395 -0.59461,7.3949 -0.90396,8.72206 -2.2964,9.84956 -3.75425,3.03998 -19.17887,4.73014 -23.20264,2.54243 z m -30.85333,-8.74427 -1.41585,-1.67235 1.67235,1.41592 c 0.9198,0.77875 1.67236,1.53131 1.67236,1.67235 0,0.5948 -0.59818,0.15568 -1.92886,-1.41592 z m 13.13654,-13.6266 c 0.0357,-0.86587 0.21176,-1.04199 0.44909,-0.44906 0.21465,0.53654 0.18827,1.17762 -0.0587,1.4246 -0.24699,0.24698 -0.4227,-0.19201 -0.39044,-0.97554 z m -7.6307,-11.96647 c 0.5365,-0.21471 1.17757,-0.18831 1.42455,0.0586 0.24699,0.24698 -0.19198,0.42266 -0.97554,0.39038 -0.86583,-0.0357 -1.04199,-0.21178 -0.44901,-0.44905 z m -5.20288,-0.74327 c 0.53649,-0.21471 1.17756,-0.18831 1.42455,0.0586 0.24699,0.24699 -0.19199,0.42266 -0.97554,0.39038 -0.86584,-0.0357 -1.04199,-0.21178 -0.44901,-0.44905 z m -4.45962,-0.74327 c 0.53649,-0.21471 1.17756,-0.18831 1.42455,0.0586 0.24699,0.24699 -0.19198,0.42266 -0.97554,0.39038 -0.86583,-0.0357 -1.04199,-0.21178 -0.44901,-0.44905 z"
       style="fill:#c6c6c6" />
    <path
       inkscape:connector-curvature="0"
       id="path3312"
       d="m 187.77009,726.81017 c -2.5503,-4.76532 4.93226,-22.80685 13.81716,-33.31518 4.47782,-5.29601 26.4635,-15.55582 36.28514,-16.93279 2.04399,-0.28656 6.39204,-1.15427 9.6625,-1.92824 10.06632,-2.38229 33.07682,-3.76405 37.11508,-2.22872 4.24206,1.61286 1.71561,5.69094 -5.89777,9.51973 -4.52473,2.27547 -9.67454,7.17909 -12.60377,12.0011 -2.88767,4.75361 -3.80487,5.22962 -10.10586,5.24511 -7.56804,0.0186 -14.06667,4.54773 -18.18415,12.67317 -2.13757,4.21839 -2.21837,4.24487 -6.36105,2.08556 -1.69191,-0.88184 -4.66602,-1.75611 -6.6093,-1.94284 -5.12611,-0.49255 -7.10305,1.10156 -10.58743,8.53702 -3.48957,7.44656 -4.20296,7.91739 -9.78647,6.45933 -4.14135,-1.08147 -7.08544,-0.90822 -13.98253,0.82283 -1.51717,0.38078 -2.14605,0.15393 -2.76155,-0.99608 z"
       style="fill:#c2c2c2" />
    <path
       inkscape:connector-curvature="0"
       id="path3298"
       d="m 910.34335,821.63494 c -1.3317,-1.66878 -3.2756,-5.88946 -2.8901,-6.27494 0.207,-0.20706 1.2408,1.32914 2.2971,3.41378 1.8738,3.69777 2.089,4.73587 0.593,2.86116 z M 538.33505,330.0973 c -1.94394,-1.0119 -5.28865,-2.3122 -7.43269,-2.88956 -2.74118,-0.73817 -3.29387,-1.06427 -1.86211,-1.09867 2.44298,-0.0587 11.28126,3.36496 12.51056,4.84614 1.13267,1.36478 0.97182,1.32188 -3.21576,-0.85791 z m -15.04726,-5.56436 c -1.63519,-0.77378 -2.53841,-1.41565 -2.00712,-1.42637 1.08212,-0.0219 5.35183,2.0533 5.35183,2.60104 0,0.43491 0.21994,0.51215 -3.34471,-1.17467 z m -9.6625,-2.23029 c -1.22639,-0.34797 -6.24346,-1.50391 -11.14904,-2.56874 -9.44613,-2.05044 -23.87923,-6.19613 -21.81897,-6.26718 0.67236,-0.0232 3.34813,0.61134 5.94616,1.41004 4.21121,1.29462 14.70714,3.83908 28.88002,7.0012 2.71011,0.60466 3.85222,1.07339 2.60145,1.06763 -1.2264,-0.006 -3.23323,-0.29499 -4.45962,-0.64295 z m -41.72283,-11.82173 c -5.61049,-2.82485 -16.44691,-10.96157 -20.34016,-15.27268 -1.02199,-1.13169 1.79344,0.97615 6.25647,4.6841 5.26272,4.37228 10.48724,7.92976 14.86539,10.12207 3.71293,1.85921 6.37138,3.38707 5.90773,3.39527 -0.46373,0.008 -3.47397,-1.30975 -6.68943,-2.92876 z m 171.6107,0.34221 c 0.008,-1.63519 0.16047,-2.21661 0.33826,-1.29205 0.17779,0.92456 0.17102,2.26244 -0.0149,2.97308 -0.18604,0.71063 -0.3315,-0.0459 -0.32325,-1.68103 z m 2.015,-9.79851 c -1.21614,-3.75518 -4.19895,-9.72787 -6.24242,-12.49956 -1.5845,-2.14921 -2.88337,-4.83125 -2.33974,-4.83125 1.31432,0 10.73296,18.93587 9.85523,19.81362 -0.19481,0.19484 -0.76772,-0.92243 -1.27307,-2.48281 z m -91.70382,-6.73923 c -0.30623,-0.3066 -6.96778,-0.76324 -14.8034,-1.01475 l -14.24661,-0.45731 14.86538,0.28837 c 18.79186,0.36453 21.18318,0.49815 21.18318,1.18369 0,0.3066 -1.44938,0.55746 -3.22088,0.55746 -1.77144,0 -3.47137,-0.25086 -3.77767,-0.55746 z m -67.70001,-0.94104 c -5.72318,-0.60873 -11.47972,-2.06468 -12.63558,-3.19582 -0.48699,-0.47654 -0.23071,-0.5439 0.74327,-0.19532 5.98361,2.14155 12.46054,2.88539 29.35913,3.37178 l 18.2101,0.52413 -15.23702,0.0243 c -8.38036,0.0134 -17.57832,-0.22472 -20.4399,-0.52908 z m 68.36434,-7.33003 c -8.22174,-4.21205 -21.89381,-9.32253 -32.31578,-12.07939 -4.29238,-1.13543 -7.18058,-2.07995 -6.41821,-2.09892 6.21663,-0.15477 43.42744,13.80465 45.4284,17.04217 0.25895,0.41898 0.36739,0.71898 0.24111,0.66667 -0.12635,-0.0523 -3.24734,-1.64104 -6.93552,-3.53053 z m 75.45826,-3.48215 c -1.63921,-0.6202 -2.05165,-0.98739 -1.1149,-0.99269 0.81759,-0.004 2.48995,0.45102 3.71634,1.01258 2.83758,1.29933 0.84495,1.2841 -2.60144,-0.0199 z m -8.5476,-2.85233 c -2.04399,-0.9733 -4.38528,-2.33668 -5.20288,-3.02975 -0.85915,-0.72828 -0.29032,-0.56787 1.3477,0.38004 1.55885,0.90208 4.40186,2.25309 6.31778,3.00224 1.91593,0.74916 2.98185,1.37447 2.36865,1.3896 -0.61319,0.0152 -2.78726,-0.76883 -4.83125,-1.74213 z m -10.03413,-5.64853 c -1.43079,-0.78333 -2.33402,-1.43825 -2.00713,-1.45539 0.78765,-0.0412 4.98021,2.13856 4.98021,2.58938 0,0.48647 -0.0439,0.46988 -2.97308,-1.13399 z m -6.50361,-3.05859 c -1.32859,-0.85085 -2.41562,-1.68999 -2.41562,-1.86474 0,-0.33058 3.26473,1.33538 5.20288,2.65494 2.1479,1.46244 -0.39601,0.74123 -2.78726,-0.7902 z m -95.88173,0.30423 c -0.9198,-0.17717 -1.67236,-0.60636 -1.67236,-0.95377 0,-0.52805 3.52823,0.0817 6.31779,1.09181 1.01478,0.36747 -2.57469,0.26081 -4.64543,-0.13804 z m 87.51995,-2.23207 c -1.02199,-0.1784 -6.708,-1.45909 -12.63557,-2.84598 -5.92758,-1.38688 -11.78082,-2.65037 -13.00722,-2.80775 l -2.2298,-0.28616 2.42298,-0.11136 c 1.33268,-0.0612 7.24308,1.05929 13.13424,2.49008 5.89115,1.43079 12.09529,2.60144 13.78697,2.60144 1.86122,0 2.89437,0.2935 2.61638,0.74327 -0.46996,0.76038 -0.85528,0.78078 -4.08798,0.21646 z m -84.36106,-5.46946 c 2.86159,-0.77136 5.70459,-1.37992 6.31779,-1.35236 0.6132,0.0276 -1.22639,0.68124 -4.08798,1.45259 -2.86159,0.77136 -5.70459,1.37992 -6.31779,1.35236 -0.6132,-0.0276 1.22639,-0.68124 4.08798,-1.45259 z m 52.5863,-1.20551 c 0.7154,-0.18695 1.88605,-0.18695 2.60144,0 0.7154,0.18695 0.13008,0.33992 -1.30072,0.33992 -1.43079,0 -2.01611,-0.15297 -1.30072,-0.33992 z m -41.43726,-1.09036 c 1.63519,-0.29778 9.49526,-0.51515 17.46683,-0.48304 7.97156,0.0321 13.82481,0.16438 13.00721,0.29391 -3.21895,0.51001 -33.25989,0.69645 -30.47404,0.18913 z m 34.01475,0.32609 c 1.12985,-0.17085 2.8022,-0.16627 3.71635,0.0101 0.91422,0.17642 -0.0104,0.3162 -2.05417,0.31063 -2.044,-0.006 -2.79195,-0.14993 -1.66218,-0.32078 z"
       style="fill:#898989" />
    <path
       inkscape:connector-curvature="0"
       id="path3290"
       d="m 239.71213,735.92477 c -1.55544,-4.09114 -0.22239,-17.03531 2.25441,-21.89018 2.11453,-4.14488 5.70682,-8.01467 8.99883,-9.69416 2.93986,-1.49981 10.53012,-1.99391 12.40086,-0.80726 1.48899,0.9445 3.17056,7.31672 2.43785,9.23801 -1.54095,4.04057 -22.1831,25.06015 -24.61017,25.06015 -0.4163,0 -1.08309,-0.85795 -1.48178,-1.90656 z"
       style="fill:#7f7f7f" />
    <path
       inkscape:connector-curvature="0"
       id="path3280"
       d="m 269.21353,706.11851 c -0.91296,-0.91298 -0.5078,-6.95534 0.6537,-9.74831 1.2898,-3.10152 7.09094,-9.38795 10.14875,-10.99767 3.03276,-1.59656 4.31074,-1.34444 4.31074,0.85045 0,2.48064 -0.61327,3.56282 -7.20473,12.71419 -5.12433,7.11444 -6.61852,8.47125 -7.90846,7.18134 z"
       style="fill:#6c6c6c" />
    <path
       inkscape:connector-curvature="0"
       id="path3272"
       d="m 217.11503,753.01638 c -1.82844,-1.82839 -2.23969,-4.46281 -2.25456,-14.44178 -0.0119,-7.96084 0.22841,-9.8928 1.67831,-13.4957 3.92319,-9.74885 6.70875,-11.34213 12.92411,-7.39247 5.51446,3.50426 6.07296,4.84688 6.42594,15.44783 0.36487,10.96057 0.80667,10.19649 -9.59137,16.58632 -8.23089,5.05808 -7.63427,4.84394 -9.18243,3.2958 z"
       style="fill:#585858" />
    <path
       inkscape:connector-curvature="0"
       id="path3270"
       d="m 225.76104,678.09129 c 0.5249,-0.56198 1.43347,-0.83796 2.01894,-0.6133 0.99741,1.19541 -3.56883,2.31047 -2.01894,0.6133 z m 9.37054,-2.45904 c 0.53649,-0.21471 1.17756,-0.18831 1.42455,0.0586 0.24699,0.24698 -0.19198,0.42265 -0.97554,0.39038 -0.86583,-0.0357 -1.04199,-0.21179 -0.44901,-0.44905 z m 19.27855,-3.70087 c 0.511,-0.20619 1.34718,-0.20619 1.85817,0 0.511,0.20619 0.0929,0.3749 -0.92908,0.3749 -1.022,0 -1.44009,-0.16871 -0.92909,-0.3749 z m 23.78462,-1.51883 c 0.91979,-0.17717 2.42491,-0.17717 3.34471,0 0.91979,0.17716 0.16716,0.32211 -1.67236,0.32211 -1.83966,0 -2.59215,-0.14495 -1.67235,-0.32211 z m -32.85704,-2.11187 c -1.02155,-1.10232 -2.07409,-3.21776 -2.33884,-4.70097 -1.18701,-6.64943 -14.73703,-26.53182 -21.60565,-31.7027 -4.76503,-3.58724 -12.7884,-10.93467 -13.24774,-12.1317 -0.24037,-0.62634 0.52609,-2.47285 1.72312,-4.15148 3.36233,-4.71498 4.58984,-7.5435 4.60218,-10.60497 0.0149,-3.63584 0.84041,-4.87344 3.04376,-4.56155 1.34502,0.19038 2.58554,1.70934 5.14692,6.30241 4.29171,7.69595 4.78739,8.2648 7.96584,9.1424 3.4814,0.96127 14.18299,-0.42632 16.05551,-2.08179 0.75776,-0.66993 2.21107,-2.63997 3.2295,-4.37786 1.2788,-2.18203 2.35222,-3.1598 3.46899,-3.1598 1.8083,0 12.86123,10.71953 16.9614,16.44978 1.35483,1.89342 4.09103,5.57261 6.08039,8.17597 1.98943,2.60336 5.31958,8.24533 7.40043,12.53771 3.52942,7.28058 3.80331,8.25352 4.08211,14.49758 0.2623,5.87553 0.11529,6.91978 -1.2032,8.54759 -1.47041,1.81536 -1.68878,1.8497 -10.38563,1.63299 -8.0198,-0.19985 -21.84795,0.7071 -27.09357,1.777 -1.5654,0.31927 -2.45175,-0.0436 -3.88552,-1.59061 z"
       style="fill:#555555"
       sodipodi:nodetypes="ccccccccsssscsscccscscsssscsscsssssc" />
    <path
       inkscape:connector-curvature="0"
       id="path3266"
       d="m 188.81825,764.31212 c -0.61416,-1.4829 -1.61973,-3.9111 -2.23464,-5.396 -1.64299,-3.96726 -2.67762,-14.41719 -1.75746,-17.74984 2.01047,-7.28139 11.07427,-12.60745 18.36381,-10.79096 6.05891,1.50982 6.61539,2.18857 7.15805,8.73072 0.26394,3.18249 1.00936,8.3714 1.65645,11.53091 0.84398,4.12071 0.95146,6.01164 0.38018,6.68942 -1.47977,1.7556 -16.11132,8.74414 -19.29259,9.21482 -3.08353,0.4562 -3.18335,0.40416 -4.2738,-2.22907 z m 56.1152,-29.08223 c 0.96008,-1.022 1.91287,-1.85817 2.11727,-1.85817 0.2044,0 -0.41392,0.83617 -1.374,1.85817 -0.96016,1.022 -1.91296,1.85817 -2.11736,1.85817 -0.20439,0 0.41393,-0.83617 1.37409,-1.85817 z m 8.54759,-7.80433 c 2.83966,-2.86158 5.33021,-5.20288 5.53461,-5.20288 0.2044,0 -1.95168,2.3413 -4.79134,5.20288 -2.83966,2.86159 -5.33028,5.20289 -5.53468,5.20289 -0.2044,0 1.95175,-2.3413 4.79141,-5.20289 z m -14.4351,-4.89318 c 0.0357,-0.86588 0.21175,-1.04199 0.44908,-0.44907 0.21466,0.53655 0.18827,1.17763 -0.0587,1.42461 -0.24699,0.24698 -0.4227,-0.19202 -0.39044,-0.97554 z m 20.75289,-2.02882 c 0,-0.12791 1.08696,-1.21495 2.41563,-2.41562 l 2.41562,-2.18305 -2.18305,2.41562 c -2.03493,2.25171 -2.6482,2.75727 -2.6482,2.18305 z m -1.6259,-18.11362 c 0.53649,-0.21471 1.17756,-0.18831 1.42455,0.0587 0.24699,0.24698 -0.19199,0.42265 -0.97554,0.39038 -0.86583,-0.0357 -1.04199,-0.21179 -0.44901,-0.44906 z M 590.84651,413.45708 c -0.22202,-0.57867 -0.28349,-2.00017 -0.13647,-3.1589 0.21815,-1.71927 0.33447,-1.52576 0.63253,1.05212 0.37579,3.24996 0.21108,3.9495 -0.49606,2.10678 z m 4.16676,-0.0628 c 1.022,-0.58422 2.19265,-1.06223 2.60145,-1.06223 0.4088,0 -0.0929,0.47801 -1.11491,1.06223 -1.02199,0.58423 -2.19264,1.06223 -2.60144,1.06223 -0.4088,0 0.0929,-0.478 1.1149,-1.06223 z m 5.2648,-2.13844 c 0.76022,-0.68799 6.62751,-3.42766 6.62751,-3.09466 0,0.42251 -5.60938,3.37493 -6.41211,3.37493 -0.28876,0 -0.38575,-0.12613 -0.2154,-0.28027 z m -8.9225,-4.61292 c 0.0357,-0.86587 0.21183,-1.04199 0.44909,-0.44906 0.21465,0.53654 0.18827,1.17761 -0.0587,1.4246 -0.24699,0.24698 -0.4227,-0.19201 -0.39037,-0.97554 z m 18.52309,-0.54054 c 0,-0.17319 1.4215,-1.25239 3.15889,-2.39822 1.7374,-1.14583 2.76653,-1.60837 2.2869,-1.02785 -0.9221,1.11627 -5.44579,3.96219 -5.44579,3.42607 z m -17.73403,-1.99896 c 0,-0.6132 0.28749,-1.78385 0.63884,-2.60145 0.40263,-0.93699 0.63876,-1.07438 0.63876,-0.37163 0,0.6132 -0.28742,1.78385 -0.63876,2.60144 -0.40271,0.937 -0.63884,1.07438 -0.63884,0.37164 z m 24.42345,-2.44597 c 0,-0.17313 2.59216,-2.42605 5.76034,-5.00648 3.16819,-2.58044 5.15011,-3.9959 4.40432,-3.14547 -1.49078,1.69993 -10.16466,8.6563 -10.16466,8.15195 z m -22.98604,-2.42678 c -0.0785,-1.11325 3.02317,-10.13498 3.36641,-9.79175 0.15624,0.15624 -0.52482,2.59988 -1.51352,5.4303 -0.9887,2.83042 -1.82249,4.79307 -1.85289,4.36145 z m 37.85143,-10.05568 c 1.83959,-1.7964 4.62403,-4.60754 6.18757,-6.247 2.25456,-2.3639 2.51336,-2.50595 1.25055,-0.68635 -0.8758,1.26196 -3.66023,4.0731 -6.18764,6.24698 -3.66135,3.14929 -3.91547,3.28877 -1.25048,0.68637 z m -34.13791,-0.851 c -0.0852,-0.87993 2.33617,-6.60752 2.65748,-6.28619 0.16181,0.16176 -0.35818,1.76438 -1.15541,3.56136 -0.79723,1.79698 -1.47316,3.02315 -1.50207,2.72483 z m 43.65897,-9.86336 c 0.37609,-0.8176 0.86984,-1.98825 1.09721,-2.60145 0.35707,-0.96308 0.42136,-0.95713 0.47205,0.0438 0.032,0.63727 -0.4615,1.80792 -1.09721,2.60144 -1.13743,1.4197 -1.14494,1.419 -0.47205,-0.0438 z m 1.07209,-11.14904 c 0.008,-1.6352 0.16047,-2.21662 0.33826,-1.29206 0.17779,0.92456 0.17103,2.26245 -0.0149,2.97308 -0.18604,0.71063 -0.33149,-0.0459 -0.32324,-1.68102 z m -34.7494,-1.85818 c 0.63416,-1.22639 1.32027,-2.2298 1.52467,-2.2298 0.2044,0 -0.14725,1.00341 -0.7814,2.2298 -0.63423,1.2264 -1.32035,2.22981 -1.52475,2.22981 -0.20439,0 0.14725,-1.00341 0.78148,-2.22981 z m -1.85818,-5.97164 c 2.493,-0.76421 5.20289,-0.84772 5.20282,-0.16033 0,0.3066 -1.58874,0.59626 -3.53053,0.64369 -2.6696,0.0652 -3.07744,-0.0526 -1.67229,-0.48336 z m -44.0387,-4.18311 c 0.511,-0.20619 1.34718,-0.20619 1.85817,0 0.511,0.20619 0.0929,0.3749 -0.92908,0.3749 -1.022,0 -1.44009,-0.16871 -0.92909,-0.3749 z m 9.70896,-0.0155 c 0.53649,-0.21471 1.17756,-0.18831 1.42455,0.0586 0.24698,0.24699 -0.19199,0.42266 -0.97555,0.39038 -0.86583,-0.0357 -1.04199,-0.21178 -0.449,-0.44905 z m -12.59106,-1.53628 c -0.92455,-1.17887 -0.89824,-1.20516 0.28066,-0.28063 1.23806,0.97099 1.63177,1.58135 1.02006,1.58135 -0.1543,0 -0.73963,-0.58532 -1.30072,-1.30072 z m -1.25427,-5.14209 c -0.0756,-2.11276 -0.32993,-4.45406 -0.56518,-5.20289 -0.40032,-1.27417 -0.37401,-1.27786 0.41036,-0.0576 0.46098,0.71717 0.71532,3.05847 0.56526,5.20289 l -0.27293,3.89895 -0.13751,-3.84137 z m -4.81973,-11.38124 c -1.55321,-1.59982 -4.56345,-3.77564 -6.68942,-4.83517 -2.1259,-1.05953 -3.02912,-1.71724 -2.00713,-1.46157 2.6314,0.65829 9.34498,5.31538 10.74679,7.45489 1.59981,2.44163 1.25649,2.24765 -2.05024,-1.15815 z m 17.87533,-40.6755 c 1.77582,-0.34203 2.15199,-1.57184 0.93169,-3.0458 -0.40731,-0.49202 -0.19437,-0.41761 0.47331,0.16535 1.60539,1.40179 0.75658,3.43142 -1.38173,3.30378 l -1.69562,-0.10122 1.67235,-0.32211 z m -4.41316,-0.72645 c 0.53649,-0.21472 1.17756,-0.18831 1.42455,0.0586 0.24699,0.24698 -0.19199,0.42265 -0.97554,0.39038 -0.86584,-0.0357 -1.04199,-0.21179 -0.44901,-0.44906 z m -2.97308,-0.74327 c 0.53649,-0.21472 1.17756,-0.18831 1.42455,0.0586 0.24699,0.24698 -0.19198,0.42265 -0.97554,0.39038 -0.86583,-0.0357 -1.04199,-0.21179 -0.44901,-0.44906 z m -62.10944,-0.77699 c 1.533,-0.16035 4.04153,-0.16035 5.57452,0 1.533,0.16036 0.27873,0.29156 -2.78726,0.29156 -3.06598,0 -4.32025,-0.1312 -2.78726,-0.29156 z m 19.69664,0.0169 c 0.9198,-0.17716 2.42492,-0.17716 3.34471,0 0.9198,0.17716 0.16724,0.32211 -1.67235,0.32211 -1.8396,0 -2.59216,-0.14495 -1.67236,-0.32211 z m -69.77634,-1.51945 c -0.92455,-1.17887 -0.89824,-1.20516 0.28066,-0.28063 0.7154,0.56106 1.30072,1.14639 1.30072,1.30073 0,0.61174 -0.61037,0.218 -1.58138,-1.0201 z m 37.86222,0.79299 c 0.53649,-0.21472 1.17756,-0.18831 1.42455,0.0586 0.24698,0.24698 -0.19199,0.42266 -0.97555,0.39038 -0.86583,-0.0357 -1.04198,-0.21179 -0.449,-0.44906 z m 39.71845,-0.0337 c 1.53299,-0.16036 4.04152,-0.16036 5.57452,0 1.53299,0.16035 0.27872,0.29155 -2.78726,0.29155 -3.06599,0 -4.32026,-0.1312 -2.78726,-0.29155 z m 17.47545,0.0158 c 0.92455,-0.17779 2.26243,-0.17104 2.97307,0.015 0.71064,0.18603 -0.0461,0.33149 -1.68097,0.32324 -1.6352,-0.008 -2.21666,-0.16046 -1.2921,-0.33825 z m 22.47527,-1.70413 c -0.66991,-0.43293 -0.76163,-0.72506 -0.22974,-0.73189 0.48691,-0.006 1.09193,0.32309 1.34464,0.73189 0.57032,0.92278 0.313,0.92278 -1.1149,0 z m -120.35573,-2.70168 c -0.84726,-1.07713 -1.51925,-2.49863 -1.49331,-3.1589 0.0282,-0.72646 0.33745,-0.47278 0.78237,0.64241 0.40441,1.01359 1.27121,2.43509 1.92626,3.15889 0.65504,0.72381 0.9962,1.31601 0.75806,1.31601 -0.23807,0 -1.12606,-0.88129 -1.97338,-1.95841 z m 21.87255,1.44414 c -4.38514,-1.00835 -7.18161,-1.84273 -6.95031,-2.07372 0.14345,-0.14325 2.76942,0.34566 5.83541,1.08649 3.06598,0.74083 4.90558,1.34294 4.08798,1.33801 -0.8176,-0.005 -2.15548,-0.16278 -2.97308,-0.35078 z m 94.02357,-0.60064 c -1.022,-0.58422 -1.52371,-1.06223 -1.11491,-1.06223 0.4088,0 1.57945,0.47801 2.60144,1.06223 1.022,0.58423 1.52371,1.06223 1.11491,1.06223 -0.4088,0 -1.57945,-0.478 -2.60144,-1.06223 z m -104.0577,-2.60144 c -0.6132,-0.39628 -0.78044,-0.7205 -0.37164,-0.7205 0.4088,0 1.24498,0.32422 1.85818,0.7205 0.61319,0.39628 0.78043,0.7205 0.37163,0.7205 -0.4088,0 -1.24498,-0.32422 -1.85817,-0.7205 z m -6.68943,-2.22981 c -4.43263,-1.85996 -2.8902,-1.88832 1.85818,-0.0342 2.04399,0.79815 3.21464,1.44813 2.60144,1.4444 -0.6132,-0.004 -2.62003,-0.63832 -4.45962,-1.41024 z m 181.25417,-0.042 c -1.37899,-1.20123 -1.43637,-1.36571 -0.2681,-0.76816 2.52132,1.28965 3.75656,2.27336 2.86954,2.28528 -0.46566,0.006 -1.63631,-0.67644 -2.60144,-1.51712 z M 447.7066,283.92929 c 0.53649,-0.21472 1.17756,-0.18831 1.42455,0.0586 0.24698,0.24698 -0.19199,0.42266 -0.97555,0.39038 -0.86583,-0.0357 -1.04198,-0.21179 -0.449,-0.44906 z m 58.11436,-16.54359 c 0,-0.38467 0.33061,-0.90376 0.73472,-1.15351 0.42136,-0.2604 0.54593,0.038 0.29211,0.6994 -0.49413,1.28765 -1.02683,1.52325 -1.02683,0.45411 z"
       style="fill:#4f4f4f" />
    <g
       id="g4179"
       transform="translate(20.017244,-12.485282)">
      <path
         inkscape:connector-curvature="0"
         id="path4155"
         d="m 480.86974,556.70965 c -27.68363,-7.14904 -48.39855,-31.26008 -51.07925,-59.45318 -3.14548,-33.08206 24.69779,-67.60782 58.37427,-72.38399 14.61762,-2.07315 30.93796,1.38397 43.64869,9.24614 30.82319,19.06556 41.53535,59.98419 23.66341,90.39067 -5.39834,9.18452 -19.33778,22.64418 -27.72278,26.76863 -15.24807,7.50018 -31.55756,9.38974 -46.88434,5.43173 z"
         style="fill:#ffffff;fill-opacity:1" />
      <path
         style="fill:#030303"
         d="m 485.7715,536.69884 c -19.18772,-4.95505 -33.54538,-21.66658 -35.4034,-41.20743 -2.18016,-22.92941 17.11823,-46.85946 40.45964,-50.16986 10.13157,-1.43692 21.44332,0.95924 30.25321,6.40856 21.36379,13.21448 28.78846,41.57548 16.40128,62.65043 -3.74162,6.36586 -13.40315,15.69484 -19.21485,18.55352 -10.56855,5.19844 -21.87278,6.5081 -32.49588,3.76478 z"
         id="path3250"
         inkscape:connector-curvature="0" />
    </g>
  </g>
</svg>
